<svg version="1.1" viewBox="0.0 0.0 265.8923884514436 451.16272965879267" fill="none" stroke="none" stroke-linecap="square" stroke-miterlimit="10" xmlns:xlink="http://www.w3.org/1999/xlink" xmlns="http://www.w3.org/2000/svg"><clipPath id="p.0"><path d="m0 0l265.8924 0l0 451.16272l-265.8924 0l0 -451.16272z" clip-rule="nonzero"/></clipPath><g clip-path="url(#p.0)"><path fill="#000000" fill-opacity="0.0" d="m0 0l265.8924 0l0 451.16272l-265.8924 0z" fill-rule="evenodd"/><path fill="#1c94ff" d="m14.902887 205.85826l236.72441 0l0 15.086624l-236.72441 0z" fill-rule="evenodd"/><path stroke="#000000" stroke-width="1.0" stroke-linejoin="round" stroke-linecap="butt" d="m14.902887 205.85826l236.72441 0l0 15.086624l-236.72441 0z" fill-rule="evenodd"/><path fill="#000000" fill-opacity="0.0" d="m94.661415 118.48819l49.25985 0l0 63.02362l-49.25985 0z" fill-rule="evenodd"/><path fill="#000000" d="m113.39579 135.84506q8.375 0 8.375 13.3125q0 13.3125 -8.375 13.3125q-3.875 0 -6.125 -3.015625q-2.234375 -3.015625 -2.234375 -10.359375q0 -13.25 8.359375 -13.25zm3.28125 11.265625q-0.140625 -4.40625 -0.96875 -5.828125q-0.8125 -1.421875 -2.3125 -1.421875q-1.46875 0 -2.296875 1.4375q-0.828125 1.4375 -0.953125 5.8125l6.53125 0zm0 4.09375l-6.53125 0q0.125 4.390625 0.9375 5.8125q0.828125 1.421875 2.3125 1.421875q1.5 0 2.3125 -1.421875q0.828125 -1.4375 0.96875 -5.8125z" fill-rule="nonzero"/><path fill="#000000" fill-opacity="0.0" d="m174.97244 282.62695l0 93.03937" fill-rule="evenodd"/><path stroke="#000000" stroke-width="3.0" stroke-linejoin="round" stroke-linecap="butt" d="m174.97244 292.9082l0 82.75809" fill-rule="evenodd"/><path fill="#000000" stroke="#000000" stroke-width="3.0" stroke-linecap="butt" d="m174.97244 292.9082l3.3737488 3.3737488l-3.3737488 -9.269287l-3.3737488 9.269287z" fill-rule="evenodd"/><path fill="#000000" fill-opacity="0.0" d="m266.52887 374.1845l-92.944885 0" fill-rule="evenodd"/><path stroke="#000000" stroke-width="3.0" stroke-linejoin="round" stroke-linecap="butt" d="m256.24762 374.1845l-82.663635 0" fill-rule="evenodd"/><path fill="#000000" stroke="#000000" stroke-width="3.0" stroke-linecap="butt" d="m256.24762 374.1845l-3.373764 3.3737488l9.269302 -3.3737488l-9.269302 -3.3737488z" fill-rule="evenodd"/><path fill="#000000" fill-opacity="0.0" d="m233.83704 323.59198l32.6929 0l0 59.77954l-32.6929 0z" fill-rule="evenodd"/><path fill="#ff0000" d="m242.83704 364.59198l8.15625 -12.453125l-7.390625 -11.40625l5.625 0l4.796875 7.671875l4.671875 -7.671875l5.59375 0l-7.421875 11.59375l8.15625 12.265625l-5.8125 0l-5.296875 -8.25l-5.296875 8.25l-5.78125 0z" fill-rule="nonzero"/><path fill="#000000" fill-opacity="0.0" d="m174.97244 267.2034l36.06299 0l0 59.77954l-36.06299 0z" fill-rule="evenodd"/><path fill="#38761d" d="m192.65994 308.2034l0 -10.046875l-8.734375 -13.8125l5.640625 0l5.625 9.4375l5.5 -9.4375l5.546875 0l-8.78125 13.84375l0 10.015625l-4.796875 0z" fill-rule="nonzero"/><path fill="#000000" fill-opacity="0.0" d="m135.79396 445.46982l0 -205.85828" fill-rule="evenodd"/><path stroke="#000000" stroke-width="4.0" stroke-linejoin="round" stroke-linecap="butt" stroke-dasharray="16.0,12.0" d="m135.79396 445.46982l0 -205.85828" fill-rule="evenodd"/><path fill="#000000" fill-opacity="0.0" d="m135.79396 444.03412l-131.65353 -131.65353" fill-rule="evenodd"/><path stroke="#000000" stroke-width="4.0" stroke-linejoin="round" stroke-linecap="butt" d="m135.79396 444.03412l-114.682976 -114.68298" fill-rule="evenodd"/><path fill="#000000" stroke="#000000" stroke-width="4.0" stroke-linecap="butt" d="m25.782787 324.67932l-17.507484 -8.163849l8.163873 17.507477z" fill-rule="evenodd"/><path fill="#000000" fill-opacity="0.0" d="m107.7432 414.98938c7.5411377 -7.2450867 17.593071 -11.291321 28.05059 -11.291321l0 40.48819z" fill-rule="evenodd"/><path fill="#000000" fill-opacity="0.0" d="m107.7432 414.98938c7.5411377 -7.2450867 17.593071 -11.291321 28.05059 -11.291321" fill-rule="evenodd"/><path stroke="#000000" stroke-width="4.0" stroke-linejoin="round" stroke-linecap="butt" d="m107.7432 414.98938c7.5411377 -7.2450867 17.593071 -11.291321 28.05059 -11.291321" fill-rule="evenodd"/><path fill="#000000" fill-opacity="0.0" d="m0 260.0551l54.45669 0l0 67.87402l-54.45669 0z" fill-rule="evenodd"/><path fill="#000000" d="m11.90625 307.4551l0 -28.640625l21.234375 0l0 4.84375l-15.453125 0l0 6.359375l14.375 0l0 4.8125l-14.375 0l0 7.796875l16.0 0l0 4.828125l-21.78125 0z" fill-rule="nonzero"/><path fill="#000000" fill-opacity="0.0" d="m91.99344 351.14435l58.29921 0l0 63.02362l-58.29921 0z" fill-rule="evenodd"/><path fill="#000000" d="m111.02469 375.6106l-1.09375 4.359375q-1.265625 0.390625 -1.890625 1.796875q-0.609375 1.40625 -0.609375 3.0q0 2.125 0.984375 3.875q0.984375 1.75 3.015625 2.421875l0 -8.015625q0 -2.96875 0.421875 -4.390625q0.4375 -1.421875 1.671875 -2.234375q1.25 -0.8125 3.25 -0.8125q2.765625 0 4.734375 1.375q1.96875 1.359375 2.921875 3.5625q0.96875 2.203125 0.96875 4.359375q0 3.734375 -2.375 6.625q-2.359375 2.890625 -6.65625 3.671875l0 6.609375l-4.9375 0l0 -6.609375q-4.203125 -0.609375 -6.640625 -3.40625q-2.421875 -2.8125 -2.421875 -6.75q0 -4.4375 2.5 -7.15625q2.15625 -2.3125 6.15625 -2.28125zm5.34375 15.703125q3.9375 -1.765625 3.9375 -7.03125q0 -1.859375 -0.78125 -3.25q-0.765625 -1.390625 -1.90625 -1.390625q-0.578125 0 -0.921875 0.53125q-0.328125 0.53125 -0.328125 3.53125l0 7.609375z" fill-rule="nonzero"/><path fill="#000000" d="m129.88846 444.18634l0 0c0 -3.2615051 2.643982 -5.905487 5.9055023 -5.905487l0 0c1.5662384 0 3.0683289 0.62216187 4.175827 1.7296753c1.1074982 1.1074829 1.7296906 2.6095886 1.7296906 4.175812l0 0c0 3.2615356 -2.6439972 5.9055176 -5.9055176 5.9055176l0 0c-3.2615204 0 -5.9055023 -2.643982 -5.9055023 -5.9055176z" fill-rule="evenodd"/><path stroke="#000000" stroke-width="1.0" stroke-linejoin="round" stroke-linecap="butt" d="m129.88846 444.18634l0 0c0 -3.2615051 2.643982 -5.905487 5.9055023 -5.905487l0 0c1.5662384 0 3.0683289 0.62216187 4.175827 1.7296753c1.1074982 1.1074829 1.7296906 2.6095886 1.7296906 4.175812l0 0c0 3.2615356 -2.6439972 5.9055176 -5.9055176 5.9055176l0 0c-3.2615204 0 -5.9055023 -2.643982 -5.9055023 -5.9055176z" fill-rule="evenodd"/><path fill="#000000" fill-opacity="0.0" d="m135.14961 205.85826l0 -205.85826" fill-rule="evenodd"/><path stroke="#000000" stroke-width="4.0" stroke-linejoin="round" stroke-linecap="butt" stroke-dasharray="16.0,12.0" d="m135.14961 205.85826l0 -205.85826" fill-rule="evenodd"/><path fill="#000000" fill-opacity="0.0" d="m134.9895 205.85826l-131.65355 -131.65353" fill-rule="evenodd"/><path stroke="#000000" stroke-width="4.0" stroke-linejoin="round" stroke-linecap="butt" d="m118.018936 188.88771l-114.682976 -114.68298" fill-rule="evenodd"/><path fill="#000000" stroke="#000000" stroke-width="4.0" stroke-linecap="butt" d="m113.34714 193.55951l17.507477 8.163879l-8.163872 -17.507492z" fill-rule="evenodd"/><path fill="#000000" fill-opacity="0.0" d="m107.09885 177.19147c7.5411377 -7.245056 17.593071 -11.291306 28.050598 -11.291306l0 40.48819z" fill-rule="evenodd"/><path fill="#000000" fill-opacity="0.0" d="m107.09885 177.19147c7.5411377 -7.245056 17.593071 -11.291306 28.050598 -11.291306" fill-rule="evenodd"/><path stroke="#000000" stroke-width="4.0" stroke-linejoin="round" stroke-linecap="butt" d="m107.09885 177.19147c7.5411377 -7.245056 17.593071 -11.291306 28.050598 -11.291306" fill-rule="evenodd"/><path fill="#000000" fill-opacity="0.0" d="m174.97375 34.788357l0 93.03937" fill-rule="evenodd"/><path stroke="#000000" stroke-width="3.0" stroke-linejoin="round" stroke-linecap="butt" d="m174.97375 45.069614l0 82.75812" fill-rule="evenodd"/><path fill="#000000" stroke="#000000" stroke-width="3.0" stroke-linecap="butt" d="m174.97375 45.06962l3.3737488 3.3737488l-3.3737488 -9.269302l-3.3737488 9.269302z" fill-rule="evenodd"/><path fill="#000000" fill-opacity="0.0" d="m266.53018 126.345924l-92.944885 0" fill-rule="evenodd"/><path stroke="#000000" stroke-width="3.0" stroke-linejoin="round" stroke-linecap="butt" d="m256.24893 126.345924l-82.663635 0" fill-rule="evenodd"/><path fill="#000000" stroke="#000000" stroke-width="3.0" stroke-linecap="butt" d="m256.24893 126.345924l-3.373764 3.3737564l9.269302 -3.3737564l-9.269302 -3.3737488z" fill-rule="evenodd"/><path fill="#000000" fill-opacity="0.0" d="m233.83835 75.753395l32.6929 0l0 59.779533l-32.6929 0z" fill-rule="evenodd"/><path fill="#ff0000" d="m242.83835 116.753395l8.15625 -12.453125l-7.390625 -11.40625l5.625 0l4.796875 7.671875l4.671875 -7.671875l5.59375 0l-7.421875 11.59375l8.15625 12.265625l-5.8125 0l-5.296875 -8.25l-5.296875 8.25l-5.78125 0z" fill-rule="nonzero"/><path fill="#000000" fill-opacity="0.0" d="m174.97375 19.36483l36.06299 0l0 59.779526l-36.06299 0z" fill-rule="evenodd"/><path fill="#1155cc" d="m184.33313 60.36483l0 -4.34375l12.53125 -15.484375l-11.109375 0l0 -4.03125l17.453125 0l0 3.75l-13.0625 16.09375l13.5625 0l0 4.015625l-19.375 0z" fill-rule="nonzero"/></g></svg>